<svg xmlns:xlink="http://www.w3.org/1999/xlink" width="84.23ex" height="8.343ex" style="font-size: 15px; vertical-align: -3.671ex; margin-left: -0.089ex;" viewBox="-38.5 -2011.3 36265.7 3591.9" role="img" focusable="false" xmlns="http://www.w3.org/2000/svg">
<defs>
<path stroke-width="1" id="E1-MJMATHI-70" d="M23 287Q24 290 25 295T30 317T40 348T55 381T75 411T101 433T134 442Q209 442 230 378L240 387Q302 442 358 442Q423 442 460 395T497 281Q497 173 421 82T249 -10Q227 -10 210 -4Q199 1 187 11T168 28L161 36Q160 35 139 -51T118 -138Q118 -144 126 -145T163 -148H188Q194 -155 194 -157T191 -175Q188 -187 185 -190T172 -194Q170 -194 161 -194T127 -193T65 -192Q-5 -192 -24 -194H-32Q-39 -187 -39 -183Q-37 -156 -26 -148H-6Q28 -147 33 -136Q36 -130 94 103T155 350Q156 355 156 364Q156 405 131 405Q109 405 94 377T71 316T59 280Q57 278 43 278H29Q23 284 23 287ZM178 102Q200 26 252 26Q282 26 310 49T356 107Q374 141 392 215T411 325V331Q411 405 350 405Q339 405 328 402T306 393T286 380T269 365T254 350T243 336T235 326L232 322Q232 321 229 308T218 264T204 212Q178 106 178 102Z"></path>
<path stroke-width="1" id="E1-MJMAIN-28" d="M94 250Q94 319 104 381T127 488T164 576T202 643T244 695T277 729T302 750H315H319Q333 750 333 741Q333 738 316 720T275 667T226 581T184 443T167 250T184 58T225 -81T274 -167T316 -220T333 -241Q333 -250 318 -250H315H302L274 -226Q180 -141 137 -14T94 250Z"></path>
<path stroke-width="1" id="E1-MJMATHI-64" d="M366 683Q367 683 438 688T511 694Q523 694 523 686Q523 679 450 384T375 83T374 68Q374 26 402 26Q411 27 422 35Q443 55 463 131Q469 151 473 152Q475 153 483 153H487H491Q506 153 506 145Q506 140 503 129Q490 79 473 48T445 8T417 -8Q409 -10 393 -10Q359 -10 336 5T306 36L300 51Q299 52 296 50Q294 48 292 46Q233 -10 172 -10Q117 -10 75 30T33 157Q33 205 53 255T101 341Q148 398 195 420T280 442Q336 442 364 400Q369 394 369 396Q370 400 396 505T424 616Q424 629 417 632T378 637H357Q351 643 351 645T353 664Q358 683 366 683ZM352 326Q329 405 277 405Q242 405 210 374T160 293Q131 214 119 129Q119 126 119 118T118 106Q118 61 136 44T179 26Q233 26 290 98L298 109L352 326Z"></path>
<path stroke-width="1" id="E1-MJMAIN-3D" d="M56 347Q56 360 70 367H707Q722 359 722 347Q722 336 708 328L390 327H72Q56 332 56 347ZM56 153Q56 168 72 173H708Q722 163 722 153Q722 140 707 133H70Q56 140 56 153Z"></path>
<path stroke-width="1" id="E1-MJMAIN-31" d="M213 578L200 573Q186 568 160 563T102 556H83V602H102Q149 604 189 617T245 641T273 663Q275 666 285 666Q294 666 302 660V361L303 61Q310 54 315 52T339 48T401 46H427V0H416Q395 3 257 3Q121 3 100 0H88V46H114Q136 46 152 46T177 47T193 50T201 52T207 57T213 61V578Z"></path>
<path stroke-width="1" id="E1-MJMAIN-7C" d="M139 -249H137Q125 -249 119 -235V251L120 737Q130 750 139 750Q152 750 159 735V-235Q151 -249 141 -249H139Z"></path>
<path stroke-width="1" id="E1-MJMATHI-77" d="M580 385Q580 406 599 424T641 443Q659 443 674 425T690 368Q690 339 671 253Q656 197 644 161T609 80T554 12T482 -11Q438 -11 404 5T355 48Q354 47 352 44Q311 -11 252 -11Q226 -11 202 -5T155 14T118 53T104 116Q104 170 138 262T173 379Q173 380 173 381Q173 390 173 393T169 400T158 404H154Q131 404 112 385T82 344T65 302T57 280Q55 278 41 278H27Q21 284 21 287Q21 293 29 315T52 366T96 418T161 441Q204 441 227 416T250 358Q250 340 217 250T184 111Q184 65 205 46T258 26Q301 26 334 87L339 96V119Q339 122 339 128T340 136T341 143T342 152T345 165T348 182T354 206T362 238T373 281Q402 395 406 404Q419 431 449 431Q468 431 475 421T483 402Q483 389 454 274T422 142Q420 131 420 107V100Q420 85 423 71T442 42T487 26Q558 26 600 148Q609 171 620 213T632 273Q632 306 619 325T593 357T580 385Z"></path>
<path stroke-width="1" id="E1-MJMAIN-2C" d="M78 35T78 60T94 103T137 121Q165 121 187 96T210 8Q210 -27 201 -60T180 -117T154 -158T130 -185T117 -194Q113 -194 104 -185T95 -172Q95 -168 106 -156T131 -126T157 -76T173 -3V9L172 8Q170 7 167 6T161 3T152 1T140 0Q113 0 96 17Z"></path>
<path stroke-width="1" id="E1-MJMATHI-63" d="M34 159Q34 268 120 355T306 442Q362 442 394 418T427 355Q427 326 408 306T360 285Q341 285 330 295T319 325T330 359T352 380T366 386H367Q367 388 361 392T340 400T306 404Q276 404 249 390Q228 381 206 359Q162 315 142 235T121 119Q121 73 147 50Q169 26 205 26H209Q321 26 394 111Q403 121 406 121Q410 121 419 112T429 98T420 83T391 55T346 25T282 0T202 -11Q127 -11 81 37T34 159Z"></path>
<path stroke-width="1" id="E1-MJMAIN-29" d="M60 749L64 750Q69 750 74 750H86L114 726Q208 641 251 514T294 250Q294 182 284 119T261 12T224 -76T186 -143T145 -194T113 -227T90 -246Q87 -249 86 -250H74Q66 -250 63 -250T58 -247T55 -238Q56 -237 66 -225Q221 -64 221 250T66 725Q56 737 55 738Q55 746 60 749Z"></path>
<path stroke-width="1" id="E1-MJMAIN-2B" d="M56 237T56 250T70 270H369V420L370 570Q380 583 389 583Q402 583 409 568V270H707Q722 262 722 250T707 230H409V-68Q401 -82 391 -82H389H387Q375 -82 369 -68V230H70Q56 237 56 250Z"></path>
<path stroke-width="1" id="E1-MJMATHI-4B" d="M285 628Q285 635 228 637Q205 637 198 638T191 647Q191 649 193 661Q199 681 203 682Q205 683 214 683H219Q260 681 355 681Q389 681 418 681T463 682T483 682Q500 682 500 674Q500 669 497 660Q496 658 496 654T495 648T493 644T490 641T486 639T479 638T470 637T456 637Q416 636 405 634T387 623L306 305Q307 305 490 449T678 597Q692 611 692 620Q692 635 667 637Q651 637 651 648Q651 650 654 662T659 677Q662 682 676 682Q680 682 711 681T791 680Q814 680 839 681T869 682Q889 682 889 672Q889 650 881 642Q878 637 862 637Q787 632 726 586Q710 576 656 534T556 455L509 418L518 396Q527 374 546 329T581 244Q656 67 661 61Q663 59 666 57Q680 47 717 46H738Q744 38 744 37T741 19Q737 6 731 0H720Q680 3 625 3Q503 3 488 0H478Q472 6 472 9T474 27Q478 40 480 43T491 46H494Q544 46 544 71Q544 75 517 141T485 216L427 354L359 301L291 248L268 155Q245 63 245 58Q245 51 253 49T303 46H334Q340 37 340 35Q340 19 333 5Q328 0 317 0Q314 0 280 1T180 2Q118 2 85 2T49 1Q31 1 31 11Q31 13 34 25Q38 41 42 43T65 46Q92 46 125 49Q139 52 144 61Q147 65 216 339T285 628Z"></path>
<path stroke-width="1" id="E1-MJMAIN-2217" d="M229 286Q216 420 216 436Q216 454 240 464Q241 464 245 464T251 465Q263 464 273 456T283 436Q283 419 277 356T270 286L328 328Q384 369 389 372T399 375Q412 375 423 365T435 338Q435 325 425 315Q420 312 357 282T289 250L355 219L425 184Q434 175 434 161Q434 146 425 136T401 125Q393 125 383 131T328 171L270 213Q283 79 283 63Q283 53 276 44T250 35Q231 35 224 44T216 63Q216 80 222 143T229 213L171 171Q115 130 110 127Q106 124 100 124Q87 124 76 134T64 161Q64 166 64 169T67 175T72 181T81 188T94 195T113 204T138 215T170 230T210 250L74 315Q65 324 65 338Q65 353 74 363T98 374Q106 374 116 368T171 328L229 286Z"></path>
<path stroke-width="1" id="E1-MJMAIN-7E" d="M179 251Q164 251 151 245T131 234T111 215L97 227L83 238Q83 239 95 253T121 283T142 304Q165 318 187 318T253 300T320 282Q335 282 348 288T368 299T388 318L402 306L416 295Q375 236 344 222Q330 215 313 215Q292 215 248 233T179 251Z"></path>
<path stroke-width="1" id="E1-MJMATHI-51" d="M399 -80Q399 -47 400 -30T402 -11V-7L387 -11Q341 -22 303 -22Q208 -22 138 35T51 201Q50 209 50 244Q50 346 98 438T227 601Q351 704 476 704Q514 704 524 703Q621 689 680 617T740 435Q740 255 592 107Q529 47 461 16L444 8V3Q444 2 449 -24T470 -66T516 -82Q551 -82 583 -60T625 -3Q631 11 638 11Q647 11 649 2Q649 -6 639 -34T611 -100T557 -165T481 -194Q399 -194 399 -87V-80ZM636 468Q636 523 621 564T580 625T530 655T477 665Q429 665 379 640Q277 591 215 464T153 216Q153 110 207 59Q231 38 236 38V46Q236 86 269 120T347 155Q372 155 390 144T417 114T429 82T435 55L448 64Q512 108 557 185T619 334T636 468ZM314 18Q362 18 404 39L403 49Q399 104 366 115Q354 117 347 117Q344 117 341 117T337 118Q317 118 296 98T274 52Q274 18 314 18Z"></path>
</defs>
<g stroke="currentColor" fill="currentColor" stroke-width="0" transform="matrix(1 0 0 -1 0 0)">
 <use xlink:href="#E1-MJMATHI-70" x="0" y="0"></use>
 <use xlink:href="#E1-MJMAIN-28" x="503" y="0"></use>
 <use xlink:href="#E1-MJMATHI-64" x="893" y="0"></use>
 <use xlink:href="#E1-MJMAIN-3D" x="1694" y="0"></use>
 <use xlink:href="#E1-MJMAIN-31" x="2750" y="0"></use>
 <use xlink:href="#E1-MJMAIN-7C" x="3251" y="0"></use>
 <use xlink:href="#E1-MJMATHI-77" x="3529" y="0"></use>
 <use xlink:href="#E1-MJMAIN-2C" x="4246" y="0"></use>
 <use xlink:href="#E1-MJMATHI-63" x="4691" y="0"></use>
 <use xlink:href="#E1-MJMAIN-29" x="5124" y="0"></use>
 <use xlink:href="#E1-MJMAIN-3D" x="5792" y="0"></use>
<g transform="translate(6570,0)">
<g transform="translate(397,0)">
<rect stroke="none" width="5634" height="60" x="0" y="220"></rect>
<g transform="translate(60,770)">
 <use xlink:href="#E1-MJMATHI-70" x="0" y="0"></use>
 <use xlink:href="#E1-MJMAIN-28" x="503" y="0"></use>
 <use xlink:href="#E1-MJMATHI-64" x="893" y="0"></use>
 <use xlink:href="#E1-MJMAIN-3D" x="1694" y="0"></use>
 <use xlink:href="#E1-MJMAIN-31" x="2750" y="0"></use>
 <use xlink:href="#E1-MJMAIN-2C" x="3251" y="0"></use>
 <use xlink:href="#E1-MJMATHI-77" x="3696" y="0"></use>
 <use xlink:href="#E1-MJMAIN-7C" x="4412" y="0"></use>
 <use xlink:href="#E1-MJMATHI-63" x="4691" y="0"></use>
 <use xlink:href="#E1-MJMAIN-29" x="5124" y="0"></use>
</g>
<g transform="translate(1461,-771)">
 <use xlink:href="#E1-MJMATHI-70" x="0" y="0"></use>
 <use xlink:href="#E1-MJMAIN-28" x="503" y="0"></use>
 <use xlink:href="#E1-MJMATHI-77" x="893" y="0"></use>
 <use xlink:href="#E1-MJMAIN-7C" x="1609" y="0"></use>
 <use xlink:href="#E1-MJMATHI-63" x="1888" y="0"></use>
 <use xlink:href="#E1-MJMAIN-29" x="2321" y="0"></use>
</g>
</g>
</g>
 <use xlink:href="#E1-MJMAIN-3D" x="13000" y="0"></use>
<g transform="translate(13778,0)">
<g transform="translate(397,0)">
<rect stroke="none" width="12099" height="60" x="0" y="220"></rect>
<g transform="translate(3234,1006)">
<g transform="translate(120,0)">
<rect stroke="none" width="1653" height="60" x="0" y="220"></rect>
 <use transform="scale(0.707)" xlink:href="#E1-MJMAIN-31" x="918" y="629"></use>
<g transform="translate(60,-429)">
 <use transform="scale(0.707)" xlink:href="#E1-MJMAIN-31" x="0" y="0"></use>
 <use transform="scale(0.707)" xlink:href="#E1-MJMAIN-2B" x="500" y="0"></use>
 <use transform="scale(0.707)" xlink:href="#E1-MJMATHI-4B" x="1279" y="0"></use>
</g>
</g>
 <use xlink:href="#E1-MJMAIN-2217" x="2115" y="0"></use>
<g transform="translate(2838,0)">
 <use xlink:href="#E1-MJMATHI-70" x="0" y="0"></use>
 <use xlink:href="#E1-MJMAIN-7E" x="84" y="337"></use>
</g>
 <use xlink:href="#E1-MJMAIN-28" x="3423" y="0"></use>
 <use xlink:href="#E1-MJMATHI-77" x="3813" y="0"></use>
 <use xlink:href="#E1-MJMAIN-7C" x="4529" y="0"></use>
 <use xlink:href="#E1-MJMATHI-63" x="4808" y="0"></use>
 <use xlink:href="#E1-MJMAIN-29" x="5241" y="0"></use>
</g>
<g transform="translate(60,-949)">
<g transform="translate(120,0)">
<rect stroke="none" width="1653" height="60" x="0" y="220"></rect>
 <use transform="scale(0.707)" xlink:href="#E1-MJMAIN-31" x="918" y="629"></use>
<g transform="translate(60,-429)">
 <use transform="scale(0.707)" xlink:href="#E1-MJMAIN-31" x="0" y="0"></use>
 <use transform="scale(0.707)" xlink:href="#E1-MJMAIN-2B" x="500" y="0"></use>
 <use transform="scale(0.707)" xlink:href="#E1-MJMATHI-4B" x="1279" y="0"></use>
</g>
</g>
 <use xlink:href="#E1-MJMAIN-2217" x="2115" y="0"></use>
<g transform="translate(2838,0)">
 <use xlink:href="#E1-MJMATHI-70" x="0" y="0"></use>
 <use xlink:href="#E1-MJMAIN-7E" x="84" y="337"></use>
</g>
 <use xlink:href="#E1-MJMAIN-28" x="3423" y="0"></use>
 <use xlink:href="#E1-MJMATHI-77" x="3813" y="0"></use>
 <use xlink:href="#E1-MJMAIN-7C" x="4529" y="0"></use>
 <use xlink:href="#E1-MJMATHI-63" x="4808" y="0"></use>
 <use xlink:href="#E1-MJMAIN-29" x="5241" y="0"></use>
 <use xlink:href="#E1-MJMAIN-2B" x="5853" y="0"></use>
<g transform="translate(6631,0)">
<g transform="translate(342,0)">
<rect stroke="none" width="1653" height="60" x="0" y="220"></rect>
 <use transform="scale(0.707)" xlink:href="#E1-MJMATHI-4B" x="724" y="629"></use>
<g transform="translate(60,-429)">
 <use transform="scale(0.707)" xlink:href="#E1-MJMAIN-31" x="0" y="0"></use>
 <use transform="scale(0.707)" xlink:href="#E1-MJMAIN-2B" x="500" y="0"></use>
 <use transform="scale(0.707)" xlink:href="#E1-MJMATHI-4B" x="1279" y="0"></use>
</g>
</g>
</g>
 <use xlink:href="#E1-MJMAIN-2217" x="8969" y="0"></use>
 <use xlink:href="#E1-MJMATHI-51" x="9692" y="0"></use>
 <use xlink:href="#E1-MJMAIN-28" x="10483" y="0"></use>
 <use xlink:href="#E1-MJMATHI-77" x="10873" y="0"></use>
 <use xlink:href="#E1-MJMAIN-29" x="11589" y="0"></use>
</g>
</g>
</g>
 <use xlink:href="#E1-MJMAIN-3D" x="26673" y="0"></use>
<g transform="translate(27452,0)">
<g transform="translate(397,0)">
<rect stroke="none" width="8257" height="60" x="0" y="220"></rect>
<g transform="translate(2732,770)">
 <use xlink:href="#E1-MJMATHI-70" x="0" y="0"></use>
 <use xlink:href="#E1-MJMAIN-7E" x="84" y="337"></use>
 <use xlink:href="#E1-MJMAIN-28" x="585" y="0"></use>
 <use xlink:href="#E1-MJMATHI-77" x="974" y="0"></use>
 <use xlink:href="#E1-MJMAIN-7C" x="1691" y="0"></use>
 <use xlink:href="#E1-MJMATHI-63" x="1969" y="0"></use>
 <use xlink:href="#E1-MJMAIN-29" x="2403" y="0"></use>
</g>
<g transform="translate(60,-771)">
 <use xlink:href="#E1-MJMATHI-70" x="0" y="0"></use>
 <use xlink:href="#E1-MJMAIN-7E" x="84" y="337"></use>
 <use xlink:href="#E1-MJMAIN-28" x="585" y="0"></use>
 <use xlink:href="#E1-MJMATHI-77" x="974" y="0"></use>
 <use xlink:href="#E1-MJMAIN-7C" x="1691" y="0"></use>
 <use xlink:href="#E1-MJMATHI-63" x="1969" y="0"></use>
 <use xlink:href="#E1-MJMAIN-29" x="2403" y="0"></use>
 <use xlink:href="#E1-MJMAIN-2B" x="3015" y="0"></use>
 <use xlink:href="#E1-MJMATHI-4B" x="4015" y="0"></use>
 <use xlink:href="#E1-MJMAIN-2217" x="5127" y="0"></use>
 <use xlink:href="#E1-MJMATHI-51" x="5850" y="0"></use>
 <use xlink:href="#E1-MJMAIN-28" x="6641" y="0"></use>
 <use xlink:href="#E1-MJMATHI-77" x="7031" y="0"></use>
 <use xlink:href="#E1-MJMAIN-29" x="7747" y="0"></use>
</g>
</g>
</g>
</g>
</svg>